<svg width="46" height="56" viewBox="0 0 46 56" fill="none" xmlns="http://www.w3.org/2000/svg">
<path fill-rule="evenodd" clip-rule="evenodd" d="M4.3475 55.0847H13L16.515 44.8996L9.1 42.1343L4.3475 55.0847ZM29.485 44.8996L33 55.0847H41.6525L36.9 42.1343L29.485 44.8996ZM43 5.50847H26.75L25.5 0H20.5L19.25 5.50847H3C2.33696 5.50847 1.70107 5.79865 1.23223 6.31517C0.763392 6.83169 0.5 7.53224 0.5 8.26271V38.5593C0.5 39.2898 0.763392 39.9903 1.23223 40.5069C1.70107 41.0234 2.33696 41.3136 3 41.3136H43C43.663 41.3136 44.2989 41.0234 44.7678 40.5069C45.2366 39.9903 45.5 39.2898 45.5 38.5593V8.26271C45.5 7.53224 45.2366 6.83169 44.7678 6.31517C44.2989 5.79865 43.663 5.50847 43 5.50847Z" fill="#135794"/>
</svg>
