<svg width="73" height="74" viewBox="0 0 73 74" fill="none" xmlns="http://www.w3.org/2000/svg">
<path d="M33.9838 40.4819H33.9878H34.9838H39.9716V40.9758H34.9838H33.9878H33.9838H32.9878H28V40.4819H32.9878H33.9838Z" fill="#F6F2ED" stroke="#135794" stroke-width="2"/>
<path d="M34.5 63C22.6253 63 13 52.7032 13 40C13 27.2968 22.6253 17 34.5 17C46.3747 17 56 27.2968 56 40C56 46.1 53.7348 51.9501 49.7028 56.2635C45.6708 60.5768 40.2022 63 34.5 63ZM34.5 19.875C24.1101 19.875 15.6875 28.8853 15.6875 40C15.6875 51.1147 24.1101 60.125 34.5 60.125C44.8899 60.125 53.3125 51.1147 53.3125 40C53.3125 34.6625 51.3305 29.5436 47.8024 25.7695C44.2744 21.9953 39.4894 19.875 34.5 19.875Z" fill="#135794"/>
<path d="M58.3239 43.9348C60.2814 43.3093 61.9717 42.173 63.1658 40.6798C64.3599 39.1866 65.0002 37.4086 65 35.5867V11.8873C65 9.53023 63.9289 7.26971 62.0223 5.60303C60.1156 3.93634 57.5297 3 54.8333 3H14.1667C11.4703 3 8.88437 3.93634 6.97775 5.60303C5.07113 7.26971 4 9.53023 4 11.8873V35.5867C4 39.4882 6.88056 42.8032 10.8794 44" stroke="#135794" stroke-width="3" stroke-linecap="round" stroke-linejoin="round"/>
</svg>
