<svg width="220" height="220" viewBox="0 0 220 220" fill="none" xmlns="http://www.w3.org/2000/svg">
<g clip-path="url(#clip0_679_42)">
<path fill-rule="evenodd" clip-rule="evenodd" d="M220 110C220 139.174 208.411 167.153 187.782 187.782C167.153 208.411 139.174 220 110 220C80.8262 220 52.8473 208.411 32.2183 187.782C11.5893 167.153 0 139.174 0 110C0 80.8262 11.5893 52.8473 32.2183 32.2183C52.8473 11.5893 80.8262 0 110 0C139.174 0 167.153 11.5893 187.782 32.2183C208.411 52.8473 220 80.8262 220 110ZM160.097 59.9029C159.185 58.9906 158.102 58.2669 156.911 57.7732C155.719 57.2794 154.441 57.0253 153.151 57.0253C151.861 57.0253 150.584 57.2794 149.392 57.7732C148.201 58.2669 147.118 58.9906 146.206 59.9029L59.9029 146.206C58.9907 147.118 58.2672 148.201 57.7736 149.392C57.2799 150.584 57.0258 151.861 57.0258 153.151C57.0258 154.441 57.2799 155.719 57.7736 156.91C58.2672 158.102 58.9907 159.185 59.9029 160.097C60.815 161.009 61.8978 161.733 63.0896 162.226C64.2813 162.72 65.5586 162.974 66.8486 162.974C68.1385 162.974 69.4158 162.72 70.6076 162.226C71.7993 161.733 72.8822 161.009 73.7943 160.097L160.097 73.7943C161.009 72.8822 161.733 71.7994 162.227 70.6077C162.721 69.4159 162.975 68.1386 162.975 66.8486C162.975 65.5586 162.721 64.2812 162.227 63.0895C161.733 61.8977 161.009 60.8149 160.097 59.9029ZM75.4757 57.0429C70.5808 57.0429 65.8863 58.9874 62.425 62.4486C58.9638 65.9099 57.0193 70.6043 57.0193 75.4993C57.0193 80.3942 58.9638 85.0887 62.425 88.5499C65.8863 92.0112 70.5808 93.9557 75.4757 93.9557C80.3707 93.9557 85.0651 92.0112 88.5264 88.5499C91.9876 85.0887 93.9321 80.3942 93.9321 75.4993C93.9321 70.6043 91.9876 65.9099 88.5264 62.4486C85.0651 58.9874 80.3707 57.0429 75.4757 57.0429ZM144.524 126.076C139.629 126.076 134.935 128.02 131.474 131.481C128.012 134.943 126.068 139.637 126.068 144.532C126.068 149.427 128.012 154.122 131.474 157.583C134.935 161.044 139.629 162.989 144.524 162.989C149.419 162.989 154.114 161.044 157.575 157.583C161.036 154.122 162.981 149.427 162.981 144.532C162.981 139.637 161.036 134.943 157.575 131.481C154.114 128.02 149.419 126.076 144.524 126.076Z" fill="#135794"/>
<g filter="url(#filter0_d_679_42)">
<path d="M96.0827 74.8215C96.0827 68.9879 93.9198 63.3932 90.0698 59.2682C86.2198 55.1432 80.9981 52.8258 75.5534 52.8258C70.1087 52.8258 64.887 55.1432 61.037 59.2682C57.187 63.3932 55.0241 68.9879 55.0241 74.8215C55.0241 80.6552 57.187 86.2498 61.037 90.3748C64.887 94.4998 70.1087 96.8172 75.5534 96.8172C80.9981 96.8172 86.2198 94.4998 90.0698 90.3748C93.9198 86.2498 96.0827 80.6552 96.0827 74.8215Z" fill="#F29F05"/>
</g>
<g filter="url(#filter1_d_679_42)">
<path d="M162.308 70.659C165.888 67.079 165.888 61.2651 162.308 57.685C158.728 54.105 152.914 54.105 149.334 57.685L57.685 149.334C54.105 152.914 54.105 158.728 57.685 162.308C61.2651 165.888 67.079 165.888 70.6591 162.308L162.308 70.659Z" fill="#4ED9D9"/>
</g>
<g filter="url(#filter2_d_679_42)">
<path d="M165 144.471C165 139.026 162.799 133.804 158.88 129.954C154.961 126.104 149.646 123.941 144.104 123.941C138.562 123.941 133.247 126.104 129.329 129.954C125.41 133.804 123.208 139.026 123.208 144.471C123.208 149.915 125.41 155.137 129.329 158.987C133.247 162.837 138.562 165 144.104 165C149.646 165 154.961 162.837 158.88 158.987C162.799 155.137 165 149.915 165 144.471Z" fill="#F20574"/>
</g>
</g>
<defs>
<filter id="filter0_d_679_42" x="51.0242" y="52.8258" width="49.0586" height="51.9915" filterUnits="userSpaceOnUse" color-interpolation-filters="sRGB">
<feFlood flood-opacity="0" result="BackgroundImageFix"/>
<feColorMatrix in="SourceAlpha" type="matrix" values="0 0 0 0 0 0 0 0 0 0 0 0 0 0 0 0 0 0 127 0" result="hardAlpha"/>
<feOffset dy="4"/>
<feGaussianBlur stdDeviation="2"/>
<feComposite in2="hardAlpha" operator="out"/>
<feColorMatrix type="matrix" values="0 0 0 0 0 0 0 0 0 0 0 0 0 0 0 0 0 0 0.25 0"/>
<feBlend mode="normal" in2="BackgroundImageFix" result="effect1_dropShadow_679_42"/>
<feBlend mode="normal" in="SourceGraphic" in2="effect1_dropShadow_679_42" result="shape"/>
</filter>
<filter id="filter1_d_679_42" x="51" y="55" width="117.993" height="117.993" filterUnits="userSpaceOnUse" color-interpolation-filters="sRGB">
<feFlood flood-opacity="0" result="BackgroundImageFix"/>
<feColorMatrix in="SourceAlpha" type="matrix" values="0 0 0 0 0 0 0 0 0 0 0 0 0 0 0 0 0 0 127 0" result="hardAlpha"/>
<feOffset dy="4"/>
<feGaussianBlur stdDeviation="2"/>
<feComposite in2="hardAlpha" operator="out"/>
<feColorMatrix type="matrix" values="0 0 0 0 0 0 0 0 0 0 0 0 0 0 0 0 0 0 0.25 0"/>
<feBlend mode="normal" in2="BackgroundImageFix" result="effect1_dropShadow_679_42"/>
<feBlend mode="normal" in="SourceGraphic" in2="effect1_dropShadow_679_42" result="shape"/>
</filter>
<filter id="filter2_d_679_42" x="119.208" y="123.941" width="49.7917" height="49.0586" filterUnits="userSpaceOnUse" color-interpolation-filters="sRGB">
<feFlood flood-opacity="0" result="BackgroundImageFix"/>
<feColorMatrix in="SourceAlpha" type="matrix" values="0 0 0 0 0 0 0 0 0 0 0 0 0 0 0 0 0 0 127 0" result="hardAlpha"/>
<feOffset dy="4"/>
<feGaussianBlur stdDeviation="2"/>
<feComposite in2="hardAlpha" operator="out"/>
<feColorMatrix type="matrix" values="0 0 0 0 0 0 0 0 0 0 0 0 0 0 0 0 0 0 0.25 0"/>
<feBlend mode="normal" in2="BackgroundImageFix" result="effect1_dropShadow_679_42"/>
<feBlend mode="normal" in="SourceGraphic" in2="effect1_dropShadow_679_42" result="shape"/>
</filter>
<clipPath id="clip0_679_42">
<rect width="220" height="220" fill="white"/>
</clipPath>
</defs>
</svg>
