<svg width="60" height="64" viewBox="0 0 60 64" fill="none" xmlns="http://www.w3.org/2000/svg">
<path d="M13.6777 57.1786H45.6412V53.6071H31.2576V23.0821L37.97 30.5821L40.233 28.0571L29.6595 16.2428L19.0859 28.0571L21.349 30.5821L28.0613 23.0821V53.6035H13.6777V57.1786ZM6.05763 40.1428C4.58518 40.1428 3.35672 39.5928 2.37224 38.4928C1.38777 37.3928 0.894465 36.0202 0.892334 34.375V6.62497C0.892334 4.98212 1.38564 3.61069 2.37224 2.51069C3.35885 1.41069 4.58625 0.859498 6.05443 0.857117H53.2645C54.7348 0.857117 55.9622 1.40831 56.9467 2.51069C57.9312 3.61307 58.4245 4.98569 58.4266 6.62855V34.375C58.4266 36.0178 57.9333 37.3905 56.9467 38.4928C55.9601 39.5952 54.7327 40.1452 53.2645 40.1428H39.2485V36.5714H53.2645C53.7546 36.5714 54.2053 36.3428 54.6165 35.8857C55.0278 35.4285 55.2324 34.925 55.2302 34.375V6.62497C55.2302 6.07735 55.0257 5.57378 54.6165 5.11426C54.2074 4.65474 53.7567 4.42616 53.2645 4.42855H6.05443C5.56433 4.42855 5.11364 4.65712 4.70238 5.11426C4.29112 5.5714 4.08655 6.07617 4.08868 6.62855V34.375C4.08868 34.9226 4.29325 35.4262 4.70238 35.8857C5.11151 36.3452 5.5622 36.5738 6.05443 36.5714H20.0704V40.1428H6.05763Z" fill="#135794"/>
</svg>
