<svg width="40" height="40" viewBox="0 0 40 40" fill="none" xmlns="http://www.w3.org/2000/svg">
<path d="M40 12L38 10L35 13L32 10L30 12L33 15L30 18L32 20L35 17L38 20L40 18L37 15L40 12Z" fill="#135794"/>
<path d="M15 36C18.866 36 22 32.866 22 29C22 25.134 18.866 22 15 22C11.134 22 8 25.134 8 29C8 32.866 11.134 36 15 36Z" fill="#135794"/>
<path d="M14 10C16.2091 10 18 8.20914 18 6C18 3.79086 16.2091 2 14 2C11.7909 2 10 3.79086 10 6C10 8.20914 11.7909 10 14 10Z" fill="#135794"/>
<path d="M26 16C27.1046 16 28 15.1046 28 14C28 12.8954 27.1046 12 26 12C24.8954 12 24 12.8954 24 14C24 15.1046 24.8954 16 26 16Z" fill="#135794"/>
<path d="M20 14C21.1046 14 22 13.1046 22 12C22 10.8954 21.1046 10 20 10C18.8954 10 18 10.8954 18 12C18 13.1046 18.8954 14 20 14Z" fill="#135794"/>
<path d="M6 8C7.10457 8 8 7.10457 8 6C8 4.89543 7.10457 4 6 4C4.89543 4 4 4.89543 4 6C4 7.10457 4.89543 8 6 8Z" fill="#135794"/>
<path d="M2 14C3.10457 14 4 13.1046 4 12C4 10.8954 3.10457 10 2 10C0.89543 10 0 10.8954 0 12C0 13.1046 0.89543 14 2 14Z" fill="#135794"/>
<path d="M2 20C3.10457 20 4 19.1046 4 18C4 16.8954 3.10457 16 2 16C0.89543 16 0 16.8954 0 18C0 19.1046 0.89543 20 2 20Z" fill="#135794"/>
<path d="M6 26C7.10457 26 8 25.1046 8 24C8 22.8954 7.10457 22 6 22C4.89543 22 4 22.8954 4 24C4 25.1046 4.89543 26 6 26Z" fill="#135794"/>
</svg>
