<svg width="34" height="35" viewBox="0 0 34 35" fill="none" xmlns="http://www.w3.org/2000/svg">
<rect width="33.6345" height="34.0732" rx="10" fill="#135794"/>
<path d="M26.3696 16.6799C26.3696 16.4232 26.2728 16.1769 26.1005 15.9954C25.9283 15.8139 25.6947 15.7119 25.4511 15.7119C25.2075 15.7119 24.9739 15.8139 24.8016 15.9954C24.6294 16.1769 24.5326 16.4232 24.5326 16.6799H26.3696ZM17.1848 8.93598C17.4284 8.93598 17.662 8.83399 17.8342 8.65246C18.0065 8.47093 18.1033 8.22471 18.1033 7.96799C18.1033 7.71126 18.0065 7.46505 17.8342 7.28352C17.662 7.10198 17.4284 7 17.1848 7V8.93598ZM24.0734 24.4238H10.2962V26.3598H24.0734V24.4238ZM9.83696 23.9398V9.41997H8V23.9398H9.83696ZM24.5326 16.6799V23.9398H26.3696V16.6799H24.5326ZM10.2962 8.93598H17.1848V7H10.2962V8.93598ZM10.2962 24.4238C10.1744 24.4238 10.0576 24.3728 9.97146 24.282C9.88534 24.1913 9.83696 24.0682 9.83696 23.9398H8C8 24.5816 8.24192 25.1971 8.67254 25.651C9.10316 26.1048 9.68721 26.3598 10.2962 26.3598V24.4238ZM24.0734 26.3598C24.6824 26.3598 25.2664 26.1048 25.697 25.651C26.1276 25.1971 26.3696 24.5816 26.3696 23.9398H24.5326C24.5326 24.0682 24.4842 24.1913 24.3981 24.282C24.312 24.3728 24.1952 24.4238 24.0734 24.4238V26.3598ZM9.83696 9.41997C9.83696 9.29161 9.88534 9.1685 9.97146 9.07773C10.0576 8.98697 10.1744 8.93598 10.2962 8.93598V7C9.68721 7 9.10316 7.25496 8.67254 7.70879C8.24192 8.16263 8 8.77815 8 9.41997H9.83696Z" fill="white"/>
<path d="M8.91846 22.0038L13.8291 17.2597C13.9946 17.0999 14.21 17.0094 14.4344 17.0055C14.6589 17.0016 14.877 17.0844 15.0475 17.2384L20.8587 22.4878M19.0217 20.0679L21.2137 17.7578C21.37 17.5929 21.5776 17.493 21.7982 17.4765C22.0188 17.4599 22.2377 17.5278 22.4146 17.6677L25.4511 20.0679M19.9402 10.872H25.4511M22.6956 7.96802V13.7759" stroke="white" stroke-width="0.833333" stroke-linecap="round" stroke-linejoin="round"/>
</svg>
