<svg width="34" height="35" viewBox="0 0 34 35" fill="none" xmlns="http://www.w3.org/2000/svg">
<rect width="33.6345" height="34.0732" rx="10" fill="#135794"/>
<path d="M9.83261 25.3171C9.37651 25.3171 8.98593 25.1646 8.66085 24.8595C8.33578 24.5545 8.17352 24.1873 8.17407 23.7581V12.8445C8.17407 12.4158 8.33661 12.0486 8.66168 11.7431C8.98676 11.4375 9.37707 11.2849 9.83261 11.2855H17.2338L15.5753 12.8445H9.83261V23.7581H21.4424V18.3403L23.1009 16.7812V23.7581C23.1009 24.1868 22.9384 24.554 22.6133 24.8595C22.2882 25.1651 21.8979 25.3177 21.4424 25.3171H9.83261ZM19.0997 11.7337L20.2814 12.8251L14.8082 17.97V19.0808H15.9692L21.4631 13.9164L22.6448 15.0078L16.6741 20.6399H13.1497V17.3269L19.0997 11.7337ZM22.6448 15.0078L19.0997 11.7337L21.1729 9.78486C21.5046 9.47305 21.9021 9.31714 22.3653 9.31714C22.8286 9.31714 23.2189 9.47305 23.5363 9.78486L24.6972 10.8957C25.0151 11.1945 25.1741 11.5583 25.1741 11.9871C25.1741 12.4158 25.0151 12.7796 24.6972 13.0784L22.6448 15.0078Z" fill="white"/>
</svg>
