<svg width="16" height="27" viewBox="0 0 16 27" fill="none" xmlns="http://www.w3.org/2000/svg">
<path d="M15.4507 0.528402C15.2777 0.360906 15.0723 0.228016 14.8461 0.137344C14.6198 0.0466725 14.3773 0 14.1324 0C13.8875 0 13.645 0.0466725 13.4188 0.137344C13.1926 0.228016 12.9871 0.360906 12.8141 0.528402L0.435622 12.4854C0.297532 12.6185 0.187976 12.7766 0.113226 12.9507C0.0384764 13.1248 0 13.3114 0 13.4998C0 13.6883 0.0384764 13.8749 0.113226 14.0489C0.187976 14.223 0.297532 14.3811 0.435622 14.5142L12.8141 26.4712C13.544 27.1763 14.7208 27.1763 15.4507 26.4712C16.1806 25.7662 16.1806 24.6295 15.4507 23.9244L4.66606 13.4926L15.4656 3.06081C16.1806 2.37016 16.1806 1.21906 15.4507 0.528402Z" fill="#034C8C"/>
</svg>
